<svg width="1024" height="1024" viewBox="0 0 1024 1024" fill="none" xmlns="http://www.w3.org/2000/svg">
<rect width="1024" height="1024" rx="272" fill="url(#paint0_linear_80410_311)"/>
<path d="M266.347 428.916C266.347 355.508 325.855 296 399.262 296H621.138C694.546 296 754.054 355.508 754.054 428.916V428.916H801.844C801.844 428.916 819 436.3 819 454.76C819 473.221 801.844 485.528 801.844 485.528H754.054V625.826C754.054 643.499 739.727 657.826 722.054 657.826H716.259V707.943C716.259 707.943 716.259 728.021 688.127 728.724C658.473 728.724 658.473 707.943 658.473 707.943V673.826C658.473 664.989 651.309 657.826 642.473 657.826H380.004C371.167 657.826 364.004 664.989 364.004 673.826V709.166C364.004 709.166 364.004 728.724 335.873 728.724C307.741 728.724 307.741 709.166 307.741 709.166V657.826H298.347C280.674 657.826 266.347 643.499 266.347 625.826V485.528H224.683C224.683 485.528 203.571 473.221 205.077 454.76C206.583 436.3 224.683 428.916 224.683 428.916H266.347V428.916Z" fill="white"/>
<path d="M336.032 371.957C343.545 349.926 364.243 335.116 387.52 335.116H631.44C654.168 335.116 674.501 349.246 682.426 370.547L705.784 433.331C709.674 443.784 701.942 454.91 690.789 454.91H330.103C319.135 454.91 311.419 444.126 314.959 433.745L336.032 371.957Z" fill="#0946D2"/>
<ellipse cx="344.434" cy="550.256" rx="36.6932" ry="36.6715" fill="#0946D2"/>
<ellipse cx="677.12" cy="550.256" rx="36.6932" ry="36.6715" fill="#0946D2"/>
<defs>
<linearGradient id="paint0_linear_80410_311" x1="512" y1="0" x2="512" y2="1024" gradientUnits="userSpaceOnUse">
<stop offset="0.47" stop-color="#0946D2"/>
<stop offset="0.57" stop-color="#0E7E58"/>
</linearGradient>
</defs>
</svg>
