<svg width="1024" height="1024" viewBox="0 0 1024 1024" fill="none" xmlns="http://www.w3.org/2000/svg">
<rect width="1024" height="1024" rx="272" fill="url(#paint0_linear_80410_56)"/>
<path d="M156.723 365.4C156.723 273.5 231.223 199 323.123 199H695.672C787.572 199 862.072 273.5 862.072 365.4V391.402H931.189C931.189 391.402 956 402.091 956 428.814C956 455.536 931.189 473.351 931.189 473.351H862.072V690.761C862.072 708.434 847.745 722.761 830.072 722.761H807.41V795.309C807.41 795.309 807.41 824.372 766.725 825.39C723.837 825.39 723.837 795.309 723.837 795.309V738.761C723.837 729.925 716.674 722.761 707.837 722.761H313.96C305.124 722.761 297.96 729.925 297.96 738.761V797.079C297.96 797.079 297.96 825.39 257.275 825.39C216.59 825.39 216.59 797.079 216.59 797.079V722.761H188.723C171.05 722.761 156.723 708.434 156.723 690.761V473.351H96.467C96.467 473.351 65.9326 455.536 68.1113 428.814C70.29 402.091 96.467 391.402 96.467 391.402H156.723V365.4Z" fill="white"/>
<path d="M263.119 292.477C270.628 270.439 291.329 255.623 314.611 255.623H701.599C724.333 255.623 744.67 269.759 752.591 291.068L795.853 407.455C799.739 417.908 792.007 429.03 780.856 429.03H238.945C227.979 429.03 220.263 418.249 223.8 407.869L263.119 292.477Z" fill="#0946D2"/>
<ellipse cx="269.658" cy="567.048" rx="53.0677" ry="53.0839" fill="#0946D2"/>
<ellipse cx="750.805" cy="567.048" rx="53.0677" ry="53.0839" fill="#0946D2"/>
<defs>
<linearGradient id="paint0_linear_80410_56" x1="512" y1="0" x2="512" y2="1024" gradientUnits="userSpaceOnUse">
<stop offset="0.47" stop-color="#0946D2"/>
<stop offset="0.57" stop-color="#0E7E58"/>
</linearGradient>
</defs>
</svg>
