<svg width="453" height="453" viewBox="0 0 453 453" fill="none" xmlns="http://www.w3.org/2000/svg">
<rect width="452.44" height="452.44" rx="60" fill="url(#paint0_linear_80410_402)"/>
<path d="M103.573 184.292C103.573 147.68 133.253 118 169.865 118H280.341C316.953 118 346.633 147.68 346.633 184.292V184.292H370.45C370.45 184.292 379 187.975 379 197.182C379 206.389 370.45 212.527 370.45 212.527H346.633V279.625C346.633 290.027 338.2 298.461 327.797 298.461V298.461V323.457C327.797 323.457 327.797 333.471 313.777 333.821C298.998 333.821 298.998 323.457 298.998 323.457V314.461C298.998 305.624 291.834 298.461 282.998 298.461H168.243C159.406 298.461 152.243 305.624 152.243 314.461V324.067C152.243 324.067 152.243 333.821 138.223 333.821C124.203 333.821 124.203 324.067 124.203 324.067V298.461V298.461C112.81 298.461 103.573 289.224 103.573 277.831V212.527H82.8096C82.8096 212.527 72.2876 206.389 73.0383 197.182C73.7891 187.975 82.8096 184.292 82.8096 184.292H103.573V184.292Z" fill="white"/>
<path d="M132.005 174.362C139.515 152.325 160.216 137.509 183.497 137.509H266.552C289.285 137.509 309.621 151.645 317.542 172.953L318.557 175.681C322.443 186.134 314.711 197.256 303.559 197.256H146.559C135.593 197.256 127.877 186.475 131.414 176.095L132.005 174.362Z" fill="#0946D2"/>
<ellipse cx="142.49" cy="244.81" rx="18.2869" ry="18.2899" fill="#0946D2"/>
<ellipse cx="308.291" cy="244.81" rx="18.2869" ry="18.2899" fill="#0946D2"/>
<defs>
<linearGradient id="paint0_linear_80410_402" x1="226.22" y1="0" x2="226.22" y2="452.44" gradientUnits="userSpaceOnUse">
<stop offset="0.47" stop-color="#0946D2"/>
<stop offset="0.57" stop-color="#0E7E58"/>
</linearGradient>
</defs>
</svg>
